<svg id="Isolation_Mode" data-name="Isolation Mode" xmlns="http://www.w3.org/2000/svg" viewBox="0 0 63.36 63.72"><defs><style>.cls-1{fill:none;stroke:#464646;stroke-linecap:round;stroke-linejoin:round;stroke-width:2px;}</style></defs><g id="rating-ranking"><path class="cls-1" d="M114.61,377.77l-.62-.95-6.63-2a5.2,5.2,0,0,1-.85-.34,18.2,18.2,0,0,1-6.57-6.06l-5-7.56c-.86-1.3-1.45-2.45-.09-3.34h0c1.35-.9,4.9-.07,5.76,1.23l3.91,5.9L90.44,343.43a2.91,2.91,0,0,1,.9-4h0a2.9,2.9,0,0,1,4,.74l8.86,13.36-1.34-2a2.91,2.91,0,0,1,.89-4h0a2.9,2.9,0,0,1,4,.74l2,3-.73-1.11a2.9,2.9,0,0,1,.89-4h0a2.89,2.89,0,0,1,4,.74l2,3.07-.78-1.18a2.91,2.91,0,0,1,.89-4h0a2.9,2.9,0,0,1,4,.74l4.39,6.62a30.08,30.08,0,0,1,4.35,11.05,4.57,4.57,0,0,1,.06,1.28l-.2,2.57.63.95" transform="translate(-67 -315.05)"/><polyline class="cls-1" points="34.93 26.95 45.11 17.02 29.87 14.81 23.06 1 16.24 14.81 1 17.02 12.03 27.77 9.43 42.95 23.06 35.79"/></g></svg>