<svg id="visual" viewBox="0 0 900 600" width="900" height="600" xmlns="http://www.w3.org/2000/svg" xmlns:xlink="http://www.w3.org/1999/xlink" version="1.1"><rect x="0" y="0" width="900" height="600" fill="#303C6C"></rect><defs><linearGradient id="grad1_0" x1="33.3%" y1="0%" x2="100%" y2="100%"><stop offset="20%" stop-color="#303c6c" stop-opacity="1"></stop><stop offset="80%" stop-color="#303c6c" stop-opacity="1"></stop></linearGradient></defs><defs><linearGradient id="grad2_0" x1="0%" y1="0%" x2="66.7%" y2="100%"><stop offset="20%" stop-color="#303c6c" stop-opacity="1"></stop><stop offset="80%" stop-color="#303c6c" stop-opacity="1"></stop></linearGradient></defs><g transform="translate(900, 0)"><path d="M0 486.7C-50.4 453.5 -100.8 420.2 -167.2 403.7C-233.7 387.2 -316.2 387.5 -344.2 344.2C-372.2 300.8 -345.6 213.9 -360.3 149.2C-375 84.6 -430.9 42.3 -486.7 0L0 0Z" fill="#FBE8A6"></path></g><g transform="translate(0, 600)"><path d="M0 -486.7C69.9 -486.3 139.7 -485.8 186.3 -449.7C232.8 -413.6 256.1 -342 292.7 -292.7C329.4 -243.5 379.3 -216.5 413.9 -171.4C448.5 -126.4 467.6 -63.2 486.7 0L0 0Z" fill="#FBE8A6"></path></g></svg>